<?xml version="1.0" encoding="UTF-8" standalone="no"?>
<!DOCTYPE svg PUBLIC "-//W3C//DTD SVG 1.1//EN"
 "http://www.w3.org/Graphics/SVG/1.1/DTD/svg11.dtd">
<!-- Generated by graphviz version 2.40.1 (20161225.0304)
 -->
<!-- Title: D Pages: 1 -->
<svg width="530pt" height="404pt"
 viewBox="0.00 0.00 530.00 404.00" xmlns="http://www.w3.org/2000/svg" xmlns:xlink="http://www.w3.org/1999/xlink">
<g id="graph0" class="graph" transform="scale(1 1) rotate(0) translate(4 400)">
<title>D</title>
<polygon fill="#2e3e56" stroke="transparent" points="-4,4 -4,-400 526,-400 526,4 -4,4"/>
<!-- A -->
<g id="node1" class="node">
<title>A</title>
<ellipse fill="#edad56" stroke="#edad56" stroke-width="3" cx="261" cy="-360" rx="36" ry="36"/>
<text text-anchor="middle" x="261" y="-355.4" font-family="Times,serif" font-size="14.00" fill="#000000">A</text>
</g>
<!-- B -->
<g id="node2" class="node">
<title>B</title>
<ellipse fill="#edad56" stroke="#edad56" stroke-width="3" cx="396" cy="-252" rx="36" ry="36"/>
<text text-anchor="middle" x="396" y="-247.4" font-family="Times,serif" font-size="14.00" fill="#000000">B</text>
</g>
<!-- A&#45;&gt;B -->
<g id="edge1" class="edge">
<title>A&#45;&gt;B</title>
<path fill="none" stroke="#fcfcfc" stroke-width="3" d="M289.3004,-337.3597C309.8209,-320.9433 337.738,-298.6096 359.8694,-280.9045"/>
<polygon fill="#fcfcfc" stroke="#fcfcfc" stroke-width="3" points="362.1146,-283.5906 367.7368,-274.6105 357.7417,-278.1245 362.1146,-283.5906"/>
</g>
<!-- C -->
<g id="node3" class="node">
<title>C</title>
<ellipse fill="#edad56" stroke="#edad56" stroke-width="3" cx="306" cy="-252" rx="36" ry="36"/>
<text text-anchor="middle" x="306" y="-247.4" font-family="Times,serif" font-size="14.00" fill="#000000">C</text>
</g>
<!-- A&#45;&gt;C -->
<g id="edge2" class="edge">
<title>A&#45;&gt;C</title>
<path fill="none" stroke="#fcfcfc" stroke-width="3" d="M274.8687,-326.7152C279.0603,-316.6553 283.723,-305.4649 288.1368,-294.8717"/>
<polygon fill="#fcfcfc" stroke="#fcfcfc" stroke-width="3" points="291.4842,-295.9378 292.0997,-285.3608 285.0227,-293.2454 291.4842,-295.9378"/>
</g>
<!-- D -->
<g id="node4" class="node">
<title>D</title>
<ellipse fill="#edad56" stroke="#edad56" stroke-width="3" cx="216" cy="-252" rx="36" ry="36"/>
<text text-anchor="middle" x="216" y="-247.4" font-family="Times,serif" font-size="14.00" fill="#000000">D</text>
</g>
<!-- A&#45;&gt;D -->
<g id="edge3" class="edge">
<title>A&#45;&gt;D</title>
<path fill="none" stroke="#fcfcfc" stroke-width="3" d="M247.1313,-326.7152C242.9397,-316.6553 238.277,-305.4649 233.8632,-294.8717"/>
<polygon fill="#fcfcfc" stroke="#fcfcfc" stroke-width="3" points="236.9773,-293.2454 229.9003,-285.3608 230.5158,-295.9378 236.9773,-293.2454"/>
</g>
<!-- I -->
<g id="node9" class="node">
<title>I</title>
<ellipse fill="#edad56" stroke="#edad56" stroke-width="3" cx="126" cy="-252" rx="36" ry="36"/>
<text text-anchor="middle" x="126" y="-247.4" font-family="Times,serif" font-size="14.00" fill="#000000">I</text>
</g>
<!-- A&#45;&gt;I -->
<g id="edge9" class="edge">
<title>A&#45;&gt;I</title>
<path fill="none" stroke="#fcfcfc" stroke-width="3" d="M232.6996,-337.3597C212.1791,-320.9433 184.262,-298.6096 162.1306,-280.9045"/>
<polygon fill="#fcfcfc" stroke="#fcfcfc" stroke-width="3" points="164.2583,-278.1245 154.2632,-274.6105 159.8854,-283.5906 164.2583,-278.1245"/>
</g>
<!-- F -->
<g id="node5" class="node">
<title>F</title>
<ellipse fill="#edad56" stroke="#edad56" stroke-width="3" cx="396" cy="-144" rx="36" ry="36"/>
<text text-anchor="middle" x="396" y="-139.4" font-family="Times,serif" font-size="14.00" fill="#000000">F</text>
</g>
<!-- B&#45;&gt;F -->
<g id="edge4" class="edge">
<title>B&#45;&gt;F</title>
<path fill="none" stroke="#fcfcfc" stroke-width="3" d="M396,-215.7371C396,-207.6339 396,-198.9311 396,-190.4791"/>
<polygon fill="#fcfcfc" stroke="#fcfcfc" stroke-width="3" points="399.5001,-190.351 396,-180.351 392.5001,-190.351 399.5001,-190.351"/>
</g>
<!-- C&#45;&gt;F -->
<g id="edge5" class="edge">
<title>C&#45;&gt;F</title>
<path fill="none" stroke="#fcfcfc" stroke-width="3" d="M329.1772,-224.1873C340.515,-210.582 354.2914,-194.0504 366.3831,-179.5402"/>
<polygon fill="#fcfcfc" stroke="#fcfcfc" stroke-width="3" points="369.1882,-181.6413 372.9013,-171.7184 363.8106,-177.16 369.1882,-181.6413"/>
</g>
<!-- L -->
<g id="node12" class="node">
<title>L</title>
<ellipse fill="#edad56" stroke="#edad56" stroke-width="3" cx="216" cy="-144" rx="36" ry="36"/>
<text text-anchor="middle" x="216" y="-139.4" font-family="Times,serif" font-size="14.00" fill="#000000">L</text>
</g>
<!-- C&#45;&gt;L -->
<g id="edge13" class="edge">
<title>C&#45;&gt;L</title>
<path fill="none" stroke="#fcfcfc" stroke-width="3" d="M282.8228,-224.1873C271.485,-210.582 257.7086,-194.0504 245.6169,-179.5402"/>
<polygon fill="#fcfcfc" stroke="#fcfcfc" stroke-width="3" points="248.1894,-177.16 239.0987,-171.7184 242.8118,-181.6413 248.1894,-177.16"/>
</g>
<!-- G -->
<g id="node7" class="node">
<title>G</title>
<ellipse fill="#edad56" stroke="#edad56" stroke-width="3" cx="396" cy="-36" rx="36" ry="36"/>
<text text-anchor="middle" x="396" y="-31.4" font-family="Times,serif" font-size="14.00" fill="#000000">G</text>
</g>
<!-- F&#45;&gt;G -->
<g id="edge7" class="edge">
<title>F&#45;&gt;G</title>
<path fill="none" stroke="#fcfcfc" stroke-width="3" d="M396,-107.7371C396,-99.6339 396,-90.9311 396,-82.4791"/>
<polygon fill="#fcfcfc" stroke="#fcfcfc" stroke-width="3" points="399.5001,-82.351 396,-72.351 392.5001,-82.351 399.5001,-82.351"/>
</g>
<!-- H -->
<g id="node8" class="node">
<title>H</title>
<ellipse fill="#edad56" stroke="#edad56" stroke-width="3" cx="486" cy="-36" rx="36" ry="36"/>
<text text-anchor="middle" x="486" y="-31.4" font-family="Times,serif" font-size="14.00" fill="#000000">H</text>
</g>
<!-- F&#45;&gt;H -->
<g id="edge8" class="edge">
<title>F&#45;&gt;H</title>
<path fill="none" stroke="#fcfcfc" stroke-width="3" d="M419.1772,-116.1873C430.515,-102.582 444.2914,-86.0504 456.3831,-71.5402"/>
<polygon fill="#fcfcfc" stroke="#fcfcfc" stroke-width="3" points="459.1882,-73.6413 462.9013,-63.7184 453.8106,-69.16 459.1882,-73.6413"/>
</g>
<!-- P -->
<g id="node16" class="node">
<title>P</title>
<ellipse fill="#edad56" stroke="#edad56" stroke-width="3" cx="306" cy="-36" rx="36" ry="36"/>
<text text-anchor="middle" x="306" y="-31.4" font-family="Times,serif" font-size="14.00" fill="#000000">P</text>
</g>
<!-- F&#45;&gt;P -->
<g id="edge18" class="edge">
<title>F&#45;&gt;P</title>
<path fill="none" stroke="#fcfcfc" stroke-width="3" d="M372.8228,-116.1873C361.485,-102.582 347.7086,-86.0504 335.6169,-71.5402"/>
<polygon fill="#fcfcfc" stroke="#fcfcfc" stroke-width="3" points="338.1894,-69.16 329.0987,-63.7184 332.8118,-73.6413 338.1894,-69.16"/>
</g>
<!-- E -->
<g id="node6" class="node">
<title>E</title>
<ellipse fill="#edad56" stroke="#edad56" stroke-width="3" cx="486" cy="-252" rx="36" ry="36"/>
<text text-anchor="middle" x="486" y="-247.4" font-family="Times,serif" font-size="14.00" fill="#000000">E</text>
</g>
<!-- E&#45;&gt;F -->
<g id="edge6" class="edge">
<title>E&#45;&gt;F</title>
<path fill="none" stroke="#fcfcfc" stroke-width="3" d="M462.8228,-224.1873C451.485,-210.582 437.7086,-194.0504 425.6169,-179.5402"/>
<polygon fill="#fcfcfc" stroke="#fcfcfc" stroke-width="3" points="428.1894,-177.16 419.0987,-171.7184 422.8118,-181.6413 428.1894,-177.16"/>
</g>
<!-- J -->
<g id="node10" class="node">
<title>J</title>
<ellipse fill="#edad56" stroke="#edad56" stroke-width="3" cx="126" cy="-144" rx="36" ry="36"/>
<text text-anchor="middle" x="126" y="-139.4" font-family="Times,serif" font-size="14.00" fill="#000000">J</text>
</g>
<!-- I&#45;&gt;J -->
<g id="edge10" class="edge">
<title>I&#45;&gt;J</title>
<path fill="none" stroke="#fcfcfc" stroke-width="3" d="M126,-215.7371C126,-207.6339 126,-198.9311 126,-190.4791"/>
<polygon fill="#fcfcfc" stroke="#fcfcfc" stroke-width="3" points="129.5001,-190.351 126,-180.351 122.5001,-190.351 129.5001,-190.351"/>
</g>
<!-- K -->
<g id="node11" class="node">
<title>K</title>
<ellipse fill="#edad56" stroke="#edad56" stroke-width="3" cx="36" cy="-144" rx="36" ry="36"/>
<text text-anchor="middle" x="36" y="-139.4" font-family="Times,serif" font-size="14.00" fill="#000000">K</text>
</g>
<!-- I&#45;&gt;K -->
<g id="edge11" class="edge">
<title>I&#45;&gt;K</title>
<path fill="none" stroke="#fcfcfc" stroke-width="3" d="M102.8228,-224.1873C91.485,-210.582 77.7086,-194.0504 65.6169,-179.5402"/>
<polygon fill="#fcfcfc" stroke="#fcfcfc" stroke-width="3" points="68.1894,-177.16 59.0987,-171.7184 62.8118,-181.6413 68.1894,-177.16"/>
</g>
<!-- I&#45;&gt;L -->
<g id="edge12" class="edge">
<title>I&#45;&gt;L</title>
<path fill="none" stroke="#fcfcfc" stroke-width="3" d="M149.1772,-224.1873C160.515,-210.582 174.2914,-194.0504 186.3831,-179.5402"/>
<polygon fill="#fcfcfc" stroke="#fcfcfc" stroke-width="3" points="189.1882,-181.6413 192.9013,-171.7184 183.8106,-177.16 189.1882,-181.6413"/>
</g>
<!-- M -->
<g id="node13" class="node">
<title>M</title>
<ellipse fill="#edad56" stroke="#edad56" stroke-width="3" cx="36" cy="-36" rx="36" ry="36"/>
<text text-anchor="middle" x="36" y="-31.4" font-family="Times,serif" font-size="14.00" fill="#000000">M</text>
</g>
<!-- L&#45;&gt;M -->
<g id="edge14" class="edge">
<title>L&#45;&gt;M</title>
<path fill="none" stroke="#fcfcfc" stroke-width="3" d="M188.8365,-120.1872C183.1574,-115.8155 177.051,-111.5261 171,-108 133.7775,-86.3093 118.2225,-93.6907 81,-72 77.7854,-70.1268 74.5552,-68.0381 71.3817,-65.8361"/>
<polygon fill="#fcfcfc" stroke="#fcfcfc" stroke-width="3" points="73.2982,-62.9014 63.1635,-59.8128 69.1601,-68.5473 73.2982,-62.9014"/>
</g>
<!-- N -->
<g id="node14" class="node">
<title>N</title>
<ellipse fill="#edad56" stroke="#edad56" stroke-width="3" cx="126" cy="-36" rx="36" ry="36"/>
<text text-anchor="middle" x="126" y="-31.4" font-family="Times,serif" font-size="14.00" fill="#000000">N</text>
</g>
<!-- L&#45;&gt;N -->
<g id="edge15" class="edge">
<title>L&#45;&gt;N</title>
<path fill="none" stroke="#fcfcfc" stroke-width="3" d="M192.8228,-116.1873C181.485,-102.582 167.7086,-86.0504 155.6169,-71.5402"/>
<polygon fill="#fcfcfc" stroke="#fcfcfc" stroke-width="3" points="158.1894,-69.16 149.0987,-63.7184 152.8118,-73.6413 158.1894,-69.16"/>
</g>
<!-- O -->
<g id="node15" class="node">
<title>O</title>
<ellipse fill="#edad56" stroke="#edad56" stroke-width="3" cx="216" cy="-36" rx="36" ry="36"/>
<text text-anchor="middle" x="216" y="-31.4" font-family="Times,serif" font-size="14.00" fill="#000000">O</text>
</g>
<!-- L&#45;&gt;O -->
<g id="edge16" class="edge">
<title>L&#45;&gt;O</title>
<path fill="none" stroke="#fcfcfc" stroke-width="3" d="M216,-107.7371C216,-99.6339 216,-90.9311 216,-82.4791"/>
<polygon fill="#fcfcfc" stroke="#fcfcfc" stroke-width="3" points="219.5001,-82.351 216,-72.351 212.5001,-82.351 219.5001,-82.351"/>
</g>
<!-- L&#45;&gt;P -->
<g id="edge17" class="edge">
<title>L&#45;&gt;P</title>
<path fill="none" stroke="#fcfcfc" stroke-width="3" d="M239.1772,-116.1873C250.515,-102.582 264.2914,-86.0504 276.3831,-71.5402"/>
<polygon fill="#fcfcfc" stroke="#fcfcfc" stroke-width="3" points="279.1882,-73.6413 282.9013,-63.7184 273.8106,-69.16 279.1882,-73.6413"/>
</g>
</g>
</svg>
